<svg width="28" height="25" viewBox="0 0 28 25" fill="none" xmlns="http://www.w3.org/2000/svg">
<path d="M25.8281 0.609375C26.7188 2.625 27.2344 5.0625 27.2344 7.40625C27.2344 15.4688 22.0312 22.0781 14.6719 22.5938C10.875 23.0156 8.01562 21.0469 6.46875 18.9844C4.07812 21 3.1875 23.0625 3.09375 23.25C2.76562 24 1.92188 24.375 1.125 24.0469C0.375 23.7188 0 22.875 0.328125 22.0781C1.45312 19.4062 6.42188 12.1406 18.2344 12.1406C18.6094 12.1406 18.9844 11.8125 18.9844 11.3906C18.9844 11.0156 18.6094 10.6406 18.2344 10.6406C12.0938 10.6406 7.78125 12.4688 4.78125 14.625C4.73438 14.2969 4.73438 13.9688 4.73438 13.6406C4.73438 8.67188 8.76562 4.64062 13.7344 4.64062H17.4844C20.4375 4.64062 23.0156 3.09375 24.4688 0.5625C24.7969 0 25.5469 0.046875 25.8281 0.609375Z" fill="#00842A"/>
</svg>
