<svg width="31" height="25" viewBox="0 0 31 25" fill="none" xmlns="http://www.w3.org/2000/svg">
<path d="M24.1406 9L23.7188 9.70312C23.5781 9.9375 23.2969 10.0312 23.0156 9.9375C22.5 9.75 21.9844 9.42188 21.5156 9.09375C21.3281 8.90625 21.2344 8.57812 21.375 8.34375L21.7969 7.6875C21.4688 7.3125 21.1875 6.84375 21.0469 6.375H20.25C19.9688 6.375 19.7344 6.1875 19.6875 5.90625C19.5938 5.34375 19.5938 4.73438 19.6875 4.17188C19.7344 3.89062 19.9688 3.65625 20.25 3.65625H21.0469C21.1875 3.1875 21.4688 2.76562 21.7969 2.39062L21.375 1.73438C21.2344 1.45312 21.3281 1.17188 21.5156 0.984375C21.9844 0.609375 22.5 0.328125 23.0156 0.09375C23.2969 0 23.5781 0.09375 23.7188 0.375L24.1406 1.03125C24.6094 0.9375 25.125 0.9375 25.5938 1.03125L26.0156 0.375C26.1562 0.09375 26.4375 0 26.7188 0.09375C27.2344 0.328125 27.75 0.609375 28.2188 0.984375C28.4062 1.17188 28.5 1.45312 28.3594 1.73438L27.9375 2.39062C28.2656 2.76562 28.5469 3.1875 28.6875 3.65625H29.4844C29.7656 3.65625 30 3.89062 30.0469 4.17188C30.1406 4.73438 30.1406 5.29688 30.0469 5.90625C30 6.1875 29.7656 6.375 29.4844 6.375H28.6875C28.5469 6.84375 28.2656 7.3125 27.9375 7.6875L28.3594 8.34375C28.5 8.57812 28.4062 8.90625 28.2188 9.09375C27.75 9.42188 27.2344 9.75 26.7188 9.9375C26.4375 10.0312 26.1562 9.9375 26.0156 9.70312L25.5938 9C25.125 9.09375 24.6094 9.09375 24.1406 9ZM23.625 6.28125C25.4531 7.64062 27.5156 5.57812 26.1094 3.79688C24.2812 2.39062 22.2656 4.45312 23.625 6.28125ZM18.2344 13.5L19.8281 14.25C20.2969 14.5312 20.4844 15.0938 20.2969 15.6094C19.875 16.7812 19.0781 17.8125 18.2812 18.7031C17.9531 19.125 17.3438 19.2188 16.875 18.9844L15.5156 18.1875C14.7656 18.7969 13.875 19.3125 12.9375 19.6406V21.2344C12.9375 21.7969 12.5625 22.2656 12 22.3594C10.875 22.5469 9.65625 22.5469 8.48438 22.3594C7.92188 22.2656 7.54688 21.7969 7.54688 21.2344V19.6406C6.5625 19.3125 5.71875 18.7969 4.96875 18.1875L3.60938 18.9375C3.14062 19.2188 2.53125 19.125 2.15625 18.7031C1.40625 17.8125 0.609375 16.7812 0.1875 15.6094C0 15.1406 0.1875 14.5312 0.703125 14.25L2.25 13.5C2.0625 12.5156 2.0625 11.4844 2.25 10.5L0.703125 9.70312C0.1875 9.42188 0 8.85938 0.1875 8.34375C0.609375 7.21875 1.40625 6.1875 2.15625 5.25C2.53125 4.875 3.09375 4.73438 3.60938 5.01562L4.96875 5.8125C5.71875 5.15625 6.5625 4.64062 7.54688 4.3125V2.76562C7.54688 2.20312 7.92188 1.73438 8.4375 1.64062C9.60938 1.45312 10.8281 1.45312 12 1.64062C12.5625 1.73438 12.9375 2.20312 12.9375 2.76562V4.3125C13.875 4.64062 14.7656 5.15625 15.5156 5.8125L16.875 5.01562C17.3438 4.73438 17.9531 4.82812 18.2812 5.25C19.0781 6.1875 19.875 7.21875 20.2969 8.34375C20.4844 8.85938 20.2969 9.42188 19.8281 9.70312L18.2344 10.5C18.4219 11.4844 18.4219 12.5156 18.2344 13.5ZM12.7031 14.4844C15.4688 10.875 11.3906 6.75 7.78125 9.51562C4.96875 13.125 9.09375 17.25 12.7031 14.4844ZM24.1406 23.0156L23.7188 23.7188C23.5781 23.9531 23.2969 24.0469 23.0156 23.9531C22.5 23.7656 21.9844 23.4375 21.5156 23.0625C21.3281 22.9219 21.2344 22.5938 21.375 22.3594L21.7969 21.6562C21.4688 21.2812 21.1875 20.8594 21.0469 20.3906H20.25C19.9688 20.3906 19.7344 20.2031 19.6875 19.9219C19.5938 19.3594 19.5938 18.75 19.6875 18.1875C19.7344 17.9062 19.9688 17.6719 20.25 17.6719H21.0469C21.1875 17.2031 21.4688 16.7812 21.7969 16.4062L21.375 15.75C21.2344 15.4688 21.3281 15.1875 21.5156 15C21.9844 14.625 22.5 14.3438 23.0156 14.1094C23.2969 14.0156 23.5781 14.1094 23.7188 14.3906L24.1406 15.0469C24.6094 14.9531 25.125 14.9531 25.5938 15.0469L26.0156 14.3906C26.1562 14.1094 26.4375 14.0156 26.7188 14.1094C27.2344 14.3438 27.75 14.625 28.2188 15C28.4062 15.1875 28.5 15.4688 28.3594 15.75L27.9375 16.4062C28.2656 16.7812 28.5469 17.2031 28.6875 17.6719H29.4844C29.7656 17.6719 30 17.9062 30.0469 18.1875C30.1406 18.75 30.1406 19.3125 30.0469 19.9219C30 20.2031 29.7656 20.3906 29.4844 20.3906H28.6875C28.5469 20.8594 28.2656 21.2812 27.9375 21.6562L28.3594 22.3594C28.5 22.5938 28.4062 22.9219 28.2188 23.0625C27.75 23.4375 27.2344 23.7656 26.7188 23.9531C26.4375 24.0469 26.1562 23.9531 26.0156 23.7188L25.5938 23.0156C25.125 23.1094 24.6094 23.1094 24.1406 23.0156ZM23.625 20.25C25.4531 21.6562 27.5156 19.5938 26.1094 17.8125C24.2812 16.4062 22.2656 18.4688 23.625 20.25Z" fill="#1447E6"/>
</svg>
