<svg width="27" height="25" viewBox="0 0 27 25" fill="none" xmlns="http://www.w3.org/2000/svg">
<path d="M22.7344 0L27 7.5H22.2188L18.9844 0H22.7344ZM16.7344 0L19.9688 7.5H6.98438L10.2188 0H16.7344ZM4.21875 0H7.96875L4.73438 7.5H0L4.21875 0ZM0 9H4.6875L10.4531 20.8125C10.5469 20.9531 10.3594 21.0938 10.2188 20.9531L0 9ZM6.9375 9H20.0156L13.5938 23.9531C13.5469 24.0469 13.4062 24.0469 13.3594 23.9531L6.9375 9ZM16.5 20.8125L22.2656 9H27L16.7344 20.9531C16.6406 21.0938 16.4062 20.9531 16.5 20.8125Z" fill="#FF7E14"/>
</svg>
