<svg width="30" height="19" viewBox="0 0 30 19" fill="none" xmlns="http://www.w3.org/2000/svg">
<path d="M20.3438 0C20.7656 0 21.1406 0.1875 21.4219 0.46875L23.9531 3V12.0938C23.8594 11.9531 23.7188 11.8594 23.625 11.7188L16.7812 6.1875L18 5.0625C18.3281 4.78125 18.3281 4.3125 18.0469 4.03125C17.7656 3.70312 17.2969 3.70312 16.9688 3.98438L13.2656 7.40625C13.2188 7.40625 13.2188 7.40625 13.2188 7.40625C12.4219 8.10938 11.2031 7.92188 10.5938 7.26562C9.9375 6.5625 9.9375 5.39062 10.6875 4.64062L15.3281 0.421875C15.6094 0.140625 15.9375 0 16.3125 0H20.3438ZM25.5 3.04688H30V15.0469H27C26.1562 15.0469 25.5 14.3438 25.5 13.5469V3.04688ZM27.75 13.5469C28.125 13.5469 28.5 13.1719 28.5 12.7969C28.5 12.375 28.125 12.0469 27.75 12.0469C27.3281 12.0469 27 12.375 27 12.7969C27 13.1719 27.3281 13.5469 27.75 13.5469ZM0 15V3.04688H4.5V13.5C4.5 14.3438 3.79688 15 3 15H0ZM2.25 12.0469C1.82812 12.0469 1.5 12.375 1.5 12.7969C1.5 13.1719 1.82812 13.5469 2.25 13.5469C2.625 13.5469 3 13.1719 3 12.7969C3 12.375 2.625 12.0469 2.25 12.0469ZM22.6406 12.8906C23.2969 13.4062 23.3906 14.3438 22.875 15L22.4531 15.5625C21.8906 16.2188 20.9531 16.3125 20.3438 15.7969L20.0625 15.5625L18.6094 17.3906C18 18.1406 16.875 18.2344 16.125 17.625L15.3281 16.9219H15.2812C14.25 18.1875 12.375 18.4219 11.0625 17.3438L6.84375 13.5H6V3L8.53125 0.46875C8.8125 0.1875 9.1875 0 9.60938 0H13.5469L9.70312 3.51562C8.34375 4.78125 8.25 6.9375 9.46875 8.29688C10.7344 9.65625 12.8438 9.79688 14.25 8.48438L15.6562 7.21875L22.6406 12.8906Z" fill="#000102"/>
</svg>
