<svg width="24" height="24" viewBox="0 0 24 24" fill="none" xmlns="http://www.w3.org/2000/svg">
<path d="M12 20C16.4183 20 20 16.4183 20 12C20 7.58172 16.4183 4 12 4C7.58172 4 4 7.58172 4 12C4 16.4183 7.58172 20 12 20Z" stroke="black" stroke-width="1.8" stroke-linecap="round" stroke-linejoin="round"/>
<path d="M6.42305 15.5V14.4474L8.88239 12.1703C9.09155 11.9679 9.26698 11.7857 9.40867 11.6238C9.55261 11.4618 9.66169 11.3033 9.73591 11.1481C9.81013 10.9906 9.84723 10.8208 9.84723 10.6387C9.84723 10.4363 9.80113 10.262 9.70892 10.1158C9.61671 9.96733 9.49076 9.85375 9.33108 9.77504C9.17139 9.69407 8.99035 9.65359 8.78793 9.65359C8.57652 9.65359 8.3921 9.69632 8.23466 9.78178C8.07723 9.86725 7.95578 9.98982 7.87032 10.1495C7.78485 10.3092 7.74212 10.4992 7.74212 10.7196H6.35558C6.35558 10.2676 6.45791 9.87512 6.66258 9.54226C6.86724 9.2094 7.15399 8.95188 7.52284 8.76971C7.89168 8.58754 8.31675 8.49645 8.79805 8.49645C9.29284 8.49645 9.72354 8.58416 10.0901 8.75959C10.459 8.93276 10.7457 9.17341 10.9504 9.48153C11.1551 9.78965 11.2574 10.1428 11.2574 10.5408C11.2574 10.8017 11.2057 11.0592 11.1022 11.3134C11.001 11.5675 10.82 11.8498 10.5591 12.1602C10.2982 12.4683 9.93045 12.8382 9.4559 13.2701L8.4472 14.2585V14.3058H11.3485V15.5H6.42305ZM12.1539 14.2855V13.1351L15.0383 8.59091H16.0302V10.1832H15.4432L13.6248 13.0609V13.1149H17.7237V14.2855H12.1539ZM15.4701 15.5V13.9347L15.4971 13.4252V8.59091H16.8668V15.5H15.4701Z" fill="black"/>
</svg>
